<?xml version="1.0" encoding="UTF-8"?>
<svg width="800" height="200" viewBox="0 0 800 200" xmlns="http://www.w3.org/2000/svg">
  <!-- Degradado de fondo -->
  <defs>
    <linearGradient id="bgGradient" x1="0%" y1="0%" x2="100%" y2="0%">
      <stop offset="0%" style="stop-color:#002D62;stop-opacity:1" />
      <stop offset="100%" style="stop-color:#C60C30;stop-opacity:1" />
    </linearGradient>
    
    <linearGradient id="docGradient" x1="0%" y1="0%" x2="0%" y2="100%">
      <stop offset="0%" style="stop-color:#ffffff;stop-opacity:1" />
      <stop offset="100%" style="stop-color:#f0f0f0;stop-opacity:1" />
    </linearGradient>
  </defs>
  
  <!-- Fondo -->
  <rect width="800" height="200" fill="url(#bgGradient)"/>
  
  <!-- Patr贸n de fondo -->
  <circle cx="50" cy="50" r="30" fill="rgba(255,255,255,0.05)"/>
  <circle cx="750" cy="150" r="40" fill="rgba(255,255,255,0.05)"/>
  <circle cx="680" cy="40" r="25" fill="rgba(255,255,255,0.05)"/>
  
  <!-- Bandera RD (peque帽a) -->
  <g transform="translate(30, 30)">
    <rect width="60" height="40" fill="white" rx="2"/>
    <rect width="60" height="13.33" fill="#002D62"/>
    <rect y="26.67" width="60" height="13.33" fill="#C60C30"/>
    <circle cx="30" cy="20" r="8" fill="white"/>
  </g>
  
  <!-- Documento e-CF -->
  <g transform="translate(140, 30)">
    <!-- Documento 1 -->
    <rect x="0" y="0" width="100" height="140" rx="4" fill="url(#docGradient)" stroke="white" stroke-width="2"/>
    <path d="M 80 0 L 100 20 L 80 20 Z" fill="rgba(0,0,0,0.1)"/>
    <line x1="15" y1="35" x2="70" y2="35" stroke="#002D62" stroke-width="2"/>
    <line x1="15" y1="45" x2="85" y2="45" stroke="#002D62" stroke-width="2"/>
    <line x1="15" y1="55" x2="65" y2="55" stroke="#002D62" stroke-width="2"/>
    <text x="50" y="80" font-family="Arial, sans-serif" font-size="16" font-weight="bold" fill="#C60C30" text-anchor="middle">e-CF</text>
    
    <!-- QR Code -->
    <rect x="35" y="95" width="30" height="30" fill="white" stroke="#002D62" stroke-width="1"/>
    <rect x="38" y="98" width="3" height="3" fill="#002D62"/>
    <rect x="43" y="98" width="3" height="3" fill="#002D62"/>
    <rect x="48" y="98" width="3" height="3" fill="#002D62"/>
    <rect x="53" y="98" width="3" height="3" fill="#002D62"/>
    <rect x="58" y="98" width="3" height="3" fill="#002D62"/>
    <rect x="38" y="103" width="3" height="3" fill="#002D62"/>
    <rect x="58" y="103" width="3" height="3" fill="#002D62"/>
    <rect x="38" y="108" width="3" height="3" fill="#002D62"/>
    <rect x="48" y="108" width="3" height="3" fill="#002D62"/>
    <rect x="53" y="108" width="3" height="3" fill="#002D62"/>
    <rect x="58" y="108" width="3" height="3" fill="#002D62"/>
  </g>
  
  <!-- Documento 2 (atr谩s) -->
  <g transform="translate(120, 45)" opacity="0.7">
    <rect x="0" y="0" width="100" height="140" rx="4" fill="url(#docGradient)" stroke="white" stroke-width="1"/>
  </g>
  
  <!-- Flechas de proceso -->
  <g transform="translate(270, 95)">
    <!-- Flecha 1 -->
    <line x1="0" y1="0" x2="40" y2="0" stroke="white" stroke-width="3"/>
    <polygon points="40,-5 50,0 40,5" fill="white"/>
    
    <!-- Texto: Genera -->
    <text x="20" y="-10" font-family="Arial, sans-serif" font-size="12" fill="white" text-anchor="middle">Genera</text>
  </g>
  
  <!-- Icono de certificado -->
  <g transform="translate(330, 60)">
    <rect width="50" height="70" rx="3" fill="white" stroke="#002D62" stroke-width="2"/>
    <circle cx="25" cy="25" r="12" fill="#FFD700" stroke="#002D62" stroke-width="1"/>
    <text x="25" y="30" font-family="Arial, sans-serif" font-size="14" font-weight="bold" fill="#002D62" text-anchor="middle"></text>
    <line x1="10" y1="45" x2="40" y2="45" stroke="#002D62" stroke-width="1"/>
    <line x1="10" y1="52" x2="40" y2="52" stroke="#002D62" stroke-width="1"/>
    <line x1="10" y1="59" x2="30" y2="59" stroke="#002D62" stroke-width="1"/>
  </g>
  
  <!-- Flecha 2 -->
  <g transform="translate(390, 95)">
    <line x1="0" y1="0" x2="40" y2="0" stroke="white" stroke-width="3"/>
    <polygon points="40,-5 50,0 40,5" fill="white"/>
    <text x="20" y="-10" font-family="Arial, sans-serif" font-size="12" fill="white" text-anchor="middle">Firma</text>
  </g>
  
  <!-- Icono de env铆o/nube -->
  <g transform="translate(450, 60)">
    <!-- Nube -->
    <ellipse cx="25" cy="30" rx="20" ry="15" fill="white"/>
    <ellipse cx="40" cy="30" rx="15" ry="12" fill="white"/>
    <ellipse cx="32" cy="20" rx="18" ry="14" fill="white"/>
    <rect x="10" y="30" width="40" height="15" fill="white"/>
    <!-- Flecha hacia arriba -->
    <line x1="30" y1="55" x2="30" y2="75" stroke="#28a745" stroke-width="3"/>
    <polygon points="30,50 25,60 35,60" fill="#28a745"/>
    <!-- DGII -->
    <text x="30" y="27" font-family="Arial, sans-serif" font-size="9" font-weight="bold" fill="#002D62" text-anchor="middle">DGII</text>
  </g>
  
  <!-- Flecha 3 -->
  <g transform="translate(510, 95)">
    <line x1="0" y1="0" x2="40" y2="0" stroke="white" stroke-width="3"/>
    <polygon points="40,-5 50,0 40,5" fill="white"/>
    <text x="20" y="-10" font-family="Arial, sans-serif" font-size="12" fill="white" text-anchor="middle">Env铆a</text>
  </g>
  
  <!-- Checkmark de aprobaci贸n -->
  <g transform="translate(570, 70)">
    <circle cx="25" cy="25" r="25" fill="#28a745"/>
    <path d="M 15 25 L 22 32 L 38 16" stroke="white" stroke-width="4" fill="none" stroke-linecap="round" stroke-linejoin="round"/>
    <text x="25" y="60" font-family="Arial, sans-serif" font-size="12" font-weight="bold" fill="white" text-anchor="middle">Aprobado</text>
  </g>
  
  <!-- Texto principal -->
  <text x="400" y="175" font-family="Arial, sans-serif" font-size="28" font-weight="bold" fill="white" text-anchor="middle">
    Facturaci贸n Electr贸nica DGII (e-CF)
  </text>
</svg>

